<svg xmlns="http://www.w3.org/2000/svg" viewBox="0 0 64 64" fill="none">
  <defs><radialGradient id="epicGlow"><stop offset="0%" stop-color="#9B59B6" stop-opacity="0.6"/><stop offset="100%" stop-color="#9B59B6" stop-opacity="0"/></radialGradient></defs>
  <circle cx="32" cy="32" r="28" fill="url(#epicGlow)" opacity="0.3"/>
  
  <path d="M18,12 L14,20 L14,46 L22,52 L42,52 L50,46 L50,20 L46,12 L38,8 L26,8 Z" fill="#9B59B6" stroke="#6C3483" stroke-width="1"/>
  <path d="M16,18 L48,18 M16,24 L48,24 M16,30 L48,30 M16,36 L48,36 M16,42 L48,42" stroke="#6C3483" stroke-width="0.5" opacity="0.3"/>
  <path d="M20,16 L20,48 M26,14 L26,50 M32,12 L32,50 M38,14 L38,50 M44,16 L44,48" stroke="#6C3483" stroke-width="0.5" opacity="0.2"/>
  <path d="M26,8 L32,14 L38,8" fill="none" stroke="#6C3483" stroke-width="0.8"/>
  
</svg>
