<svg xmlns="http://www.w3.org/2000/svg" viewBox="0 0 64 64" fill="none">
  <defs>
    <radialGradient id="legGlow"><stop offset="0%" stop-color="#F39C12" stop-opacity="0.7"/><stop offset="100%" stop-color="#F39C12" stop-opacity="0"/></radialGradient>
    <filter id="legBlur"><feGaussianBlur stdDeviation="1.5"/></filter>
  </defs>
  <circle cx="32" cy="32" r="30" fill="url(#legGlow)" opacity="0.35"/>
  
  <ellipse cx="32" cy="14" rx="14" ry="8" fill="#F39C12" stroke="#D35400" stroke-width="1"/>
  <ellipse cx="32" cy="14" rx="10" ry="5" fill="#7E5109" opacity="0.3"/>
  <path d="M22,18 L22,28 Q22,30 28,32 L28,42 L24,44 Q20,46 20,48 L44,48 Q44,46 40,44 L36,42 L36,32 Q42,30 42,28 L42,18" fill="#F39C12" stroke="#D35400" stroke-width="0.8"/>
  <rect x="20" y="48" width="24" height="4" rx="1" fill="#7E5109" stroke="#D35400" stroke-width="0.6"/>
  <ellipse cx="32" cy="16" rx="6" ry="3" fill="#F5B041" opacity="0.4"/>
  <circle cx="12" cy="10" r="1.5" fill="#F9E79F" opacity="0.8"><animate attributeName="opacity" values="0.8;0.2;0.8" dur="2s" repeatCount="indefinite"/></circle>
  <circle cx="52" cy="14" r="1" fill="#F5B041" opacity="0.7"><animate attributeName="opacity" values="0.7;0.1;0.7" dur="1.5s" repeatCount="indefinite"/></circle>
  <circle cx="8" cy="50" r="1.2" fill="#FCF3CF" opacity="0.6"><animate attributeName="opacity" values="0.6;0.15;0.6" dur="1.8s" repeatCount="indefinite"/></circle>
  <circle cx="54" cy="48" r="1" fill="#F9E79F" opacity="0.7"><animate attributeName="opacity" values="0.5;0.9;0.5" dur="2.2s" repeatCount="indefinite"/></circle>
</svg>
