<svg xmlns="http://www.w3.org/2000/svg" viewBox="0 0 64 64" fill="none">
  <defs>
    <radialGradient id="legGlow"><stop offset="0%" stop-color="#F39C12" stop-opacity="0.7"/><stop offset="100%" stop-color="#F39C12" stop-opacity="0"/></radialGradient>
    <filter id="legBlur"><feGaussianBlur stdDeviation="1.5"/></filter>
  </defs>
  <circle cx="32" cy="32" r="30" fill="url(#legGlow)" opacity="0.35"/>
  
  <path d="M16,4 Q10,20 18,36 L32,42 L46,36 Q54,20 48,4 Z" fill="#F39C12" stroke="#D35400" stroke-width="1.2"/>
  <path d="M20,8 Q16,20 22,34 L32,38 L42,34 Q48,20 44,8 Z" fill="#F9E79F" opacity="0.2"/>
  <line x1="32" y1="8" x2="32" y2="38" stroke="#F9E79F" stroke-width="1" opacity="0.4"/>
  <path d="M18,6 Q16,12 18,18" fill="none" stroke="#F9E79F" stroke-width="1" opacity="0.5"/>
  <rect x="28" y="42" width="8" height="16" rx="2" fill="#6B4226" stroke="#4A2E1A" stroke-width="0.8"/>
  <line x1="28" y1="46" x2="36" y2="45" stroke="#4A2E1A" stroke-width="0.6"/>
  <circle cx="12" cy="10" r="1.5" fill="#F9E79F" opacity="0.8"><animate attributeName="opacity" values="0.8;0.2;0.8" dur="2s" repeatCount="indefinite"/></circle>
  <circle cx="52" cy="14" r="1" fill="#F5B041" opacity="0.7"><animate attributeName="opacity" values="0.7;0.1;0.7" dur="1.5s" repeatCount="indefinite"/></circle>
  <circle cx="8" cy="50" r="1.2" fill="#FCF3CF" opacity="0.6"><animate attributeName="opacity" values="0.6;0.15;0.6" dur="1.8s" repeatCount="indefinite"/></circle>
  <circle cx="54" cy="48" r="1" fill="#F9E79F" opacity="0.7"><animate attributeName="opacity" values="0.5;0.9;0.5" dur="2.2s" repeatCount="indefinite"/></circle>
</svg>
