<svg xmlns="http://www.w3.org/2000/svg" viewBox="0 0 64 64" fill="none">
  <defs>
    <radialGradient id="legGlow"><stop offset="0%" stop-color="#F39C12" stop-opacity="0.7"/><stop offset="100%" stop-color="#F39C12" stop-opacity="0"/></radialGradient>
    <filter id="legBlur"><feGaussianBlur stdDeviation="1.5"/></filter>
  </defs>
  <circle cx="32" cy="32" r="30" fill="url(#legGlow)" opacity="0.35"/>
  
  <path d="M20,10 L14,18 L14,50 L24,56 L40,56 L50,50 L50,18 L44,10 L38,8 L26,8 Z" fill="#F39C12" stroke="#D35400" stroke-width="1"/>
  <path d="M22,12 L18,18 L18,48 L26,54 L38,54 L46,48 L46,18 L42,12 Z" fill="#F9E79F" opacity="0.15"/>
  <path d="M26,8 L32,16 L38,8" fill="none" stroke="#D35400" stroke-width="0.8"/>
  <line x1="32" y1="16" x2="32" y2="54" stroke="#D35400" stroke-width="0.6" opacity="0.3" stroke-dasharray="3,2"/>
  <path d="M14,50 Q20,54 24,56" fill="none" stroke="#7E5109" stroke-width="0.8" opacity="0.4"/>
  <path d="M50,50 Q44,54 40,56" fill="none" stroke="#7E5109" stroke-width="0.8" opacity="0.4"/>
  <circle cx="12" cy="10" r="1.5" fill="#F9E79F" opacity="0.8"><animate attributeName="opacity" values="0.8;0.2;0.8" dur="2s" repeatCount="indefinite"/></circle>
  <circle cx="52" cy="14" r="1" fill="#F5B041" opacity="0.7"><animate attributeName="opacity" values="0.7;0.1;0.7" dur="1.5s" repeatCount="indefinite"/></circle>
  <circle cx="8" cy="50" r="1.2" fill="#FCF3CF" opacity="0.6"><animate attributeName="opacity" values="0.6;0.15;0.6" dur="1.8s" repeatCount="indefinite"/></circle>
  <circle cx="54" cy="48" r="1" fill="#F9E79F" opacity="0.7"><animate attributeName="opacity" values="0.5;0.9;0.5" dur="2.2s" repeatCount="indefinite"/></circle>
</svg>
