<svg xmlns="http://www.w3.org/2000/svg" viewBox="0 0 64 64" fill="none">
  <defs>
    <radialGradient id="legGlow"><stop offset="0%" stop-color="#F39C12" stop-opacity="0.7"/><stop offset="100%" stop-color="#F39C12" stop-opacity="0"/></radialGradient>
    <filter id="legBlur"><feGaussianBlur stdDeviation="1.5"/></filter>
  </defs>
  <circle cx="32" cy="32" r="30" fill="url(#legGlow)" opacity="0.35"/>
  
  <polygon points="32,4 28,38 32,40 36,38" fill="#F39C12" stroke="#D35400" stroke-width="1"/>
  <line x1="32" y1="6" x2="32" y2="36" stroke="#F9E79F" stroke-width="1.5" opacity="0.5"/>
  <polygon points="32,4 29,36 32,38" fill="#F9E79F" opacity="0.3"/>
  <rect x="22" y="38" width="20" height="4" rx="1" fill="#7E5109" stroke="#D35400" stroke-width="0.8"/>
  <rect x="24" y="38.5" width="16" height="1" fill="#F5B041" opacity="0.4"/>
  <rect x="29" y="42" width="6" height="14" rx="1" fill="#6B4226" stroke="#4A2E1A" stroke-width="0.8"/>
  <line x1="29" y1="45" x2="35" y2="44" stroke="#4A2E1A" stroke-width="0.8"/>
  <line x1="29" y1="48" x2="35" y2="47" stroke="#4A2E1A" stroke-width="0.8"/>
  <line x1="29" y1="51" x2="35" y2="50" stroke="#4A2E1A" stroke-width="0.8"/>
  <circle cx="32" cy="58" r="3" fill="#7E5109" stroke="#D35400" stroke-width="0.8"/>
  <circle cx="32" cy="58" r="1.2" fill="#F5B041" opacity="0.5"/>
  <circle cx="12" cy="10" r="1.5" fill="#F9E79F" opacity="0.8"><animate attributeName="opacity" values="0.8;0.2;0.8" dur="2s" repeatCount="indefinite"/></circle>
  <circle cx="52" cy="14" r="1" fill="#F5B041" opacity="0.7"><animate attributeName="opacity" values="0.7;0.1;0.7" dur="1.5s" repeatCount="indefinite"/></circle>
  <circle cx="8" cy="50" r="1.2" fill="#FCF3CF" opacity="0.6"><animate attributeName="opacity" values="0.6;0.15;0.6" dur="1.8s" repeatCount="indefinite"/></circle>
  <circle cx="54" cy="48" r="1" fill="#F9E79F" opacity="0.7"><animate attributeName="opacity" values="0.5;0.9;0.5" dur="2.2s" repeatCount="indefinite"/></circle>
</svg>
