<svg xmlns="http://www.w3.org/2000/svg" viewBox="0 0 64 64" fill="none">
  <defs><radialGradient id="epicGlow"><stop offset="0%" stop-color="#9B59B6" stop-opacity="0.6"/><stop offset="100%" stop-color="#9B59B6" stop-opacity="0"/></radialGradient></defs>
  <circle cx="32" cy="32" r="28" fill="url(#epicGlow)" opacity="0.3"/>
  
  <path d="M20,10 L14,18 L14,50 L24,56 L40,56 L50,50 L50,18 L44,10 L38,8 L26,8 Z" fill="#9B59B6" stroke="#6C3483" stroke-width="1"/>
  <path d="M22,12 L18,18 L18,48 L26,54 L38,54 L46,48 L46,18 L42,12 Z" fill="#C39BD3" opacity="0.15"/>
  <path d="M26,8 L32,16 L38,8" fill="none" stroke="#6C3483" stroke-width="0.8"/>
  <line x1="32" y1="16" x2="32" y2="54" stroke="#6C3483" stroke-width="0.6" opacity="0.3" stroke-dasharray="3,2"/>
  <path d="M14,50 Q20,54 24,56" fill="none" stroke="#4A235A" stroke-width="0.8" opacity="0.4"/>
  <path d="M50,50 Q44,54 40,56" fill="none" stroke="#4A235A" stroke-width="0.8" opacity="0.4"/>
  
</svg>
