<svg xmlns="http://www.w3.org/2000/svg" viewBox="0 0 64 64" fill="none">
  
  
  
  <rect x="18" y="6" width="28" height="4" rx="1" fill="#154360" stroke="#1A5276" stroke-width="0.8"/>
  <rect x="18" y="54" width="28" height="4" rx="1" fill="#154360" stroke="#1A5276" stroke-width="0.8"/>
  <path d="M20,10 L20,24 Q20,32 32,32 Q44,32 44,24 L44,10 Z" fill="#3498DB" stroke="#1A5276" stroke-width="0.8"/>
  <path d="M20,54 L20,40 Q20,32 32,32 Q44,32 44,40 L44,54 Z" fill="#3498DB" stroke="#1A5276" stroke-width="0.8"/>
  <path d="M24,14 L24,22 Q24,30 32,30 Q40,30 40,22 L40,14 Z" fill="#5DADE2" opacity="0.4"/>
  <path d="M28,54 L28,44 Q28,38 32,36 Q36,38 36,44 L36,54 Z" fill="#5DADE2" opacity="0.4"/>
  
</svg>
