<svg xmlns="http://www.w3.org/2000/svg" viewBox="0 0 64 64" fill="none">
  
  
  
  <path d="M18,12 L14,20 L14,48 L22,54 L42,54 L50,48 L50,20 L46,12 L38,8 L26,8 Z" fill="#3498DB" stroke="#1A5276" stroke-width="1"/>
  <path d="M20,14 L16,20 L16,46 L24,52 L40,52 L48,46 L48,20 L44,14 Z" fill="#85C1E9" opacity="0.15"/>
  <path d="M26,8 L32,14 L38,8" fill="none" stroke="#1A5276" stroke-width="0.8"/>
  <line x1="32" y1="14" x2="32" y2="52" stroke="#1A5276" stroke-width="0.8" opacity="0.3"/>
  <rect x="22" y="20" width="6" height="3" rx="0.5" fill="#154360" opacity="0.3"/>
  <rect x="36" y="20" width="6" height="3" rx="0.5" fill="#154360" opacity="0.3"/>
  <rect x="22" y="30" width="6" height="3" rx="0.5" fill="#154360" opacity="0.3"/>
  <rect x="36" y="30" width="6" height="3" rx="0.5" fill="#154360" opacity="0.3"/>
  
</svg>
