<svg xmlns="http://www.w3.org/2000/svg" viewBox="0 0 64 64" fill="none">
  <defs><radialGradient id="epicGlow"><stop offset="0%" stop-color="#9B59B6" stop-opacity="0.6"/><stop offset="100%" stop-color="#9B59B6" stop-opacity="0"/></radialGradient></defs>
  <circle cx="32" cy="32" r="28" fill="url(#epicGlow)" opacity="0.3"/>
  
  <path d="M8,20 Q8,10 22,8 L42,8 Q56,10 56,20 L56,36 Q56,42 48,44 L16,44 Q8,42 8,36 Z" fill="#9B59B6" stroke="#6C3483" stroke-width="1.2"/>
  <path d="M10,22 Q10,12 22,10 L42,10 Q54,12 54,22 L54,34 Q54,40 48,42 L16,42 Q10,40 10,34 Z" fill="#C39BD3" opacity="0.15"/>
  <ellipse cx="20" cy="26" rx="6" ry="8" fill="#4A235A" opacity="0.15"/>
  <ellipse cx="44" cy="26" rx="6" ry="8" fill="#4A235A" opacity="0.15"/>
  <line x1="32" y1="10" x2="32" y2="42" stroke="#6C3483" stroke-width="0.6" opacity="0.3"/>
  
</svg>
