<svg xmlns="http://www.w3.org/2000/svg" viewBox="0 0 64 64" fill="none">
  <defs>
    <radialGradient id="legGlow"><stop offset="0%" stop-color="#F39C12" stop-opacity="0.7"/><stop offset="100%" stop-color="#F39C12" stop-opacity="0"/></radialGradient>
    <filter id="legBlur"><feGaussianBlur stdDeviation="1.5"/></filter>
  </defs>
  <circle cx="32" cy="32" r="30" fill="url(#legGlow)" opacity="0.35"/>
  
  <path d="M18,14 L18,36 L16,40 L16,50 L26,54 L38,54 L48,50 L48,40 L46,36 L46,14 Z" fill="#F39C12" stroke="#D35400" stroke-width="1"/>
  <path d="M20,16 L20,34 L18,40 L18,48 L28,52 L36,52 L46,48 L46,40 L44,34 L44,16 Z" fill="#F9E79F" opacity="0.15"/>
  <rect x="20" y="24" width="24" height="3" rx="0.5" fill="#7E5109" opacity="0.2"/>
  <line x1="26" y1="40" x2="26" y2="52" stroke="#D35400" stroke-width="0.6" opacity="0.3"/>
  <line x1="32" y1="38" x2="32" y2="52" stroke="#D35400" stroke-width="0.6" opacity="0.3"/>
  <line x1="38" y1="40" x2="38" y2="52" stroke="#D35400" stroke-width="0.6" opacity="0.3"/>
  <circle cx="12" cy="10" r="1.5" fill="#F9E79F" opacity="0.8"><animate attributeName="opacity" values="0.8;0.2;0.8" dur="2s" repeatCount="indefinite"/></circle>
  <circle cx="52" cy="14" r="1" fill="#F5B041" opacity="0.7"><animate attributeName="opacity" values="0.7;0.1;0.7" dur="1.5s" repeatCount="indefinite"/></circle>
  <circle cx="8" cy="50" r="1.2" fill="#FCF3CF" opacity="0.6"><animate attributeName="opacity" values="0.6;0.15;0.6" dur="1.8s" repeatCount="indefinite"/></circle>
  <circle cx="54" cy="48" r="1" fill="#F9E79F" opacity="0.7"><animate attributeName="opacity" values="0.5;0.9;0.5" dur="2.2s" repeatCount="indefinite"/></circle>
</svg>
