<svg xmlns="http://www.w3.org/2000/svg" viewBox="0 0 64 64" fill="none">
  <defs>
    <radialGradient id="legGlow"><stop offset="0%" stop-color="#F39C12" stop-opacity="0.7"/><stop offset="100%" stop-color="#F39C12" stop-opacity="0"/></radialGradient>
    <filter id="legBlur"><feGaussianBlur stdDeviation="1.5"/></filter>
  </defs>
  <circle cx="32" cy="32" r="30" fill="url(#legGlow)" opacity="0.35"/>
  
  <path d="M18,12 L14,20 L14,48 L22,54 L42,54 L50,48 L50,20 L46,12 L38,8 L26,8 Z" fill="#F39C12" stroke="#D35400" stroke-width="1"/>
  <path d="M20,14 L16,20 L16,46 L24,52 L40,52 L48,46 L48,20 L44,14 Z" fill="#F9E79F" opacity="0.15"/>
  <path d="M26,8 L32,14 L38,8" fill="none" stroke="#D35400" stroke-width="0.8"/>
  <line x1="32" y1="14" x2="32" y2="52" stroke="#D35400" stroke-width="0.8" opacity="0.3"/>
  <rect x="22" y="20" width="6" height="3" rx="0.5" fill="#7E5109" opacity="0.3"/>
  <rect x="36" y="20" width="6" height="3" rx="0.5" fill="#7E5109" opacity="0.3"/>
  <rect x="22" y="30" width="6" height="3" rx="0.5" fill="#7E5109" opacity="0.3"/>
  <rect x="36" y="30" width="6" height="3" rx="0.5" fill="#7E5109" opacity="0.3"/>
  <circle cx="12" cy="10" r="1.5" fill="#F9E79F" opacity="0.8"><animate attributeName="opacity" values="0.8;0.2;0.8" dur="2s" repeatCount="indefinite"/></circle>
  <circle cx="52" cy="14" r="1" fill="#F5B041" opacity="0.7"><animate attributeName="opacity" values="0.7;0.1;0.7" dur="1.5s" repeatCount="indefinite"/></circle>
  <circle cx="8" cy="50" r="1.2" fill="#FCF3CF" opacity="0.6"><animate attributeName="opacity" values="0.6;0.15;0.6" dur="1.8s" repeatCount="indefinite"/></circle>
  <circle cx="54" cy="48" r="1" fill="#F9E79F" opacity="0.7"><animate attributeName="opacity" values="0.5;0.9;0.5" dur="2.2s" repeatCount="indefinite"/></circle>
</svg>
