<svg xmlns="http://www.w3.org/2000/svg" viewBox="0 0 64 64" fill="none">
  <defs>
    <radialGradient id="mythGlow"><stop offset="0%" stop-color="#E11D48" stop-opacity="0.8"/><stop offset="100%" stop-color="#E11D48" stop-opacity="0"/></radialGradient>
    <linearGradient id="blade" x1="0" y1="0" x2="1" y2="1"><stop offset="0%" stop-color="#FFC0CB"/><stop offset="100%" stop-color="#E11D48"/></linearGradient>
  </defs>
  <circle cx="32" cy="32" r="30" fill="url(#mythGlow)" opacity="0.4"/>
  <polygon points="32,2 27,36 32,40 37,36" fill="url(#blade)" stroke="#9F1239" stroke-width="1.2"/>
  <line x1="32" y1="4" x2="32" y2="34" stroke="#FFD1DC" stroke-width="1.5" opacity="0.6"/>
  <rect x="22" y="38" width="20" height="4" rx="1" fill="#7F1D1D" stroke="#9F1239" stroke-width="0.8"/>
  <rect x="29" y="42" width="6" height="14" rx="1" fill="#4A1010" stroke="#7F1D1D" stroke-width="0.8"/>
  <circle cx="32" cy="58" r="3" fill="#9F1239" stroke="#E11D48" stroke-width="0.8"/>
  <circle cx="32" cy="58" r="1.2" fill="#FFD1DC" opacity="0.7"/>
  <!-- Flame aura -->
  <path d="M25,20 Q22,12 28,8 Q26,16 30,14 Q27,22 25,20Z" fill="#E11D48" opacity="0.4"/>
  <path d="M39,20 Q42,12 36,8 Q38,16 34,14 Q37,22 39,20Z" fill="#E11D48" opacity="0.4"/>
  <!-- Shimmer particles -->
  <circle cx="14" cy="12" r="1.5" fill="#FFD1DC" opacity="0.9"><animate attributeName="opacity" values="0.9;0.2;0.9" dur="1.8s" repeatCount="indefinite"/></circle>
  <circle cx="50" cy="16" r="1" fill="#E11D48" opacity="0.8"><animate attributeName="opacity" values="0.8;0.1;0.8" dur="2.2s" repeatCount="indefinite"/></circle>
  <circle cx="10" cy="48" r="1.2" fill="#FFC0CB" opacity="0.7"><animate attributeName="opacity" values="0.7;0.15;0.7" dur="1.5s" repeatCount="indefinite"/></circle>
  <circle cx="52" cy="50" r="1" fill="#FFD1DC" opacity="0.8"><animate attributeName="opacity" values="0.5;0.9;0.5" dur="2s" repeatCount="indefinite"/></circle>
  <circle cx="20" cy="8" r="0.8" fill="#E11D48" opacity="0.6"><animate attributeName="opacity" values="0.6;0.1;0.6" dur="2.5s" repeatCount="indefinite"/></circle>
</svg>